<svg version="1.1" id="Layer_1" xmlns="http://www.w3.org/2000/svg" xmlns:xlink="http://www.w3.org/1999/xlink" x="0px" y="0px"
	 viewBox="0 0 16 16" style="enable-background:new 0 0 16 16;" xml:space="preserve">
<path id="Blue_1_" style="fill:#828282;" d="M15.1,16c0.4,0,0.9-0.4,0.9-0.9V0.9C16,0.4,15.6,0,15.1,0H0.9C0.4,0,0,0.4,0,0.9v14.2
	C0,15.6,0.4,16,0.9,16L15.1,16C15.1,16,15.1,16,15.1,16z"/>
<path id="f" style="fill:#FFFFFF;" d="M11.1,16V9.8h2.1l0.3-2.5h-2.3V5.8c0-0.7,0.2-1.2,1.2-1.2h1.2V2.5c-0.2,0-1-0.1-1.9-0.1
	c-1.9,0-3.1,1.1-3.1,3.2v1.8H6.5v2.5h2.1V16L11.1,16L11.1,16z"/>
</svg>
