<svg xmlns="http://www.w3.org/2000/svg" width="30" height="30" viewBox="0 0 40 40">
  <path d="M19.9 24.1c2.1 0 3.8-1.7 3.8-3.8 0-.8-.3-1.6-.7-2.2-.7-1-1.8-1.6-3.1-1.6s-2.4.6-3.1 1.6c-.5.6-.7 1.4-.7 2.2 0 2.1 1.7 3.8 3.8 3.8zm.1-24.1c-11 0-20 9-20 20s9 20 20 20 20-9 20-20-9-20-20-20zm10.8 18.1v8.9c0 2.3-1.9 4.2-4.2 4.2h-13.4c-2.3 0-4.2-1.9-4.2-4.2v-13.3c0-2.3 1.9-4.2 4.2-4.2h13.3c2.3 0 4.2 1.9 4.2 4.2.1-.1.1 4.4.1 4.4zm-5 2.2c0 3.3-2.7 5.9-5.9 5.9s-5.9-2.6-5.9-5.9c0-.8.2-1.5.4-2.2h-3.2v8.9c0 1.1.9 2.1 2.1 2.1h13.3c1.1 0 2.1-.9 2.1-2.1v-8.9h-3.2c.2.7.3 1.4.3 2.2zm2.5-4.7h-3.7v-3.7h3.7v3.7z"></path>
</svg>